<svg width="512" height="512" viewBox="0 0 512 512" fill="none" xmlns="http://www.w3.org/2000/svg">
<g clip-path="url(#clip0_2_20)">
<mask id="mask0_2_20" style="mask-type:alpha" maskUnits="userSpaceOnUse" x="6" y="6" width="500" height="500">
<rect x="31.3136" y="31.3136" width="449.686" height="449.686" rx="40" stroke="url(#paint0_linear_2_20)" stroke-width="50"/>
<path d="M203.459 38.7791C203.459 87.3682 203.459 128.607 203.459 183.698M31.7527 91.0376C31.7527 91.0376 31.7527 124.069 31.7527 183.698M203.459 183.698C203.459 222.757 203.459 276.045 203.459 316.089C203.459 327.135 194.491 336.082 183.446 336.082C118.834 336.082 75.0594 336.082 51.7457 336.082C40.7 336.082 31.7527 327.153 31.7527 316.107C31.7527 291.874 31.7527 246.348 31.7527 183.698M203.459 183.698C85.7677 183.698 31.7527 183.698 31.7527 183.698" stroke="url(#paint1_linear_2_20)" stroke-width="49"/>
</mask>
<g mask="url(#mask0_2_20)">
<g filter="url(#filter0_d_2_20)">
<rect x="-2.06165" y="-2.06155" width="516.437" height="516.437" fill="url(#paint2_linear_2_20)"/>
</g>
</g>
</g>
<defs>
<filter id="filter0_d_2_20" x="-6.06165" y="-2.06155" width="524.437" height="524.437" filterUnits="userSpaceOnUse" color-interpolation-filters="sRGB">
<feFlood flood-opacity="0" result="BackgroundImageFix"/>
<feColorMatrix in="SourceAlpha" type="matrix" values="0 0 0 0 0 0 0 0 0 0 0 0 0 0 0 0 0 0 127 0" result="hardAlpha"/>
<feOffset dy="4"/>
<feGaussianBlur stdDeviation="2"/>
<feComposite in2="hardAlpha" operator="out"/>
<feColorMatrix type="matrix" values="0 0 0 0 0 0 0 0 0 0 0 0 0 0 0 0 0 0 0.25 0"/>
<feBlend mode="normal" in2="BackgroundImageFix" result="effect1_dropShadow_2_20"/>
<feBlend mode="normal" in="SourceGraphic" in2="effect1_dropShadow_2_20" result="shape"/>
</filter>
<linearGradient id="paint0_linear_2_20" x1="256.157" y1="31.3136" x2="256.157" y2="481" gradientUnits="userSpaceOnUse">
<stop stop-color="#49BBEF"/>
<stop offset="1" stop-color="#003BB8"/>
</linearGradient>
<linearGradient id="paint1_linear_2_20" x1="211.364" y1="100.699" x2="211.364" y2="410.738" gradientUnits="userSpaceOnUse">
<stop stop-color="#49BBEF"/>
<stop offset="1" stop-color="#003BB8"/>
</linearGradient>
<linearGradient id="paint2_linear_2_20" x1="538.15" y1="105.498" x2="538.15" y2="644.059" gradientUnits="userSpaceOnUse">
<stop stop-color="#49BBEF"/>
<stop offset="1" stop-color="#003BB8"/>
</linearGradient>
<clipPath id="clip0_2_20">
<rect width="512" height="512" fill="white"/>
</clipPath>
</defs>
</svg>
